<?xml version="1.0" encoding="utf-8"?>
<svg version="1.1" xmlns:xlink="http://www.w3.org/1999/xlink" width="36px" height="28px" xmlns="http://www.w3.org/2000/svg">
  <g transform="matrix(1 0 0 1 -50 -84 )">
    <path d="M 35.2051630434782 11.2233632862645  C 35.7350543478261 11.6726572528883  36 12.2148053059478  36 12.8498074454429  L 36 15.1501925545571  C 36 15.7851946940522  35.7350543478261 16.3273427471117  35.2051630434782 16.7766367137355  C 34.6752717391305 17.2259306803594  33.9864130434783 17.4505776636714  33.1385869565218 17  L 15.9211956521738 17  L 23.0869565217392 22.7342747111682  C 23.7065217391305 23.1655969191271  24.0163043478261 23.7047496790757  24.0163043478261 24.3517329910141  C 24.0163043478261 24.9987163029525  23.7065217391305 25.5378690629012  23.0869565217392 25.96919127086  L 21.2527173913043 27.3350449293967  C 20.6494565217392 27.7783483097989  19.9157608695652 28  19.0516304347826 28  C 18.2038043478262 28  17.4619565217391 27.7783483097989  16.8260869565217 27.3350449293967  L 0.904891304347919 15.6174582798459  C 0.301630434782575 15.1741548994438  0 14.6350021394951  0 14  C 0 13.3769790329483  0.301630434782575 12.8318356867779  0.904891304347919 12.364569961489  L 16.8260869565217 0.68292682926825  C 17.445652173913 0.227642276422702  18.1875 0  19.0516304347826 0  C 19.8994565217391 0  20.633152173913 0.227642276422702  21.2527173913043 0.68292682926825  L 23.0869565217392 2.01283697047492  C 23.7065217391305 2.46812152332047  24.0163043478261 3.01326486949074  24.0163043478261 3.64826700898588  C 24.0163043478261 4.28326914848102  23.7065217391305 4.8284124946513  23.0869565217392 5.28369704749684  L 15.9211956521738 11  L 33.1385869565218 11  C 33.9864130434783 10.5494223363286  34.6752717391305 10.7740693196406  35.2051630434782 11.2233632862645  Z " fill-rule="nonzero" fill="#333333" stroke="none" transform="matrix(1 0 0 1 50 84 )" />
  </g>
</svg>