<?xml version="1.0" encoding="utf-8"?>
<svg version="1.1" xmlns:xlink="http://www.w3.org/1999/xlink" width="6px" height="12px" xmlns="http://www.w3.org/2000/svg">
  <g transform="matrix(1 0 0 1 -364 -130 )">
    <path d="M 5.89690721649485 0.721442885771529  C 5.96563573883161 0.80160320641283  6 0.893787575150327  6 0.997995991983957  C 6 1.10220440881765  5.96563573883161 1.19438877755508  5.89690721649485 1.27454909819639  L 1.84536082474227 6  L 5.89690721649485 10.7254509018036  C 5.96563573883161 10.8056112224449  6 10.8977955911824  6 11.002004008016  C 6 11.1062124248497  5.96563573883161 11.1983967935872  5.89690721649485 11.2785571142285  L 5.38144329896908 11.8797595190381  C 5.31271477663229 11.9599198396793  5.23367697594501 12  5.14432989690723 12  C 5.05498281786941 12  4.97594501718213 11.9599198396793  4.90721649484535 11.8797595190381  L 0.103092783505153 6.27655310621243  C 0.0343642611683864 6.19639278557113  0 6.10420841683369  0 6  C 0 5.89579158316631  0.0343642611683864 5.80360721442887  0.103092783505153 5.72344689378757  L 4.90721649484535 0.12024048096189  C 4.97594501718213 0.0400801603206508  5.05498281786941 0  5.14432989690723 0  C 5.23367697594501 0  5.31271477663229 0.0400801603206508  5.38144329896908 0.12024048096189  L 5.89690721649485 0.721442885771529  Z " fill-rule="nonzero" fill="#aaaaaa" stroke="none" transform="matrix(1 0 0 1 364 130 )" />
  </g>
</svg>