<?xml version="1.0" encoding="utf-8"?>
<svg version="1.1" xmlns:xlink="http://www.w3.org/1999/xlink" width="19px" height="15px" xmlns="http://www.w3.org/2000/svg">
  <g transform="matrix(1 0 0 1 -334 -132 )">
    <path d="M 16.276361130255 8.56975837879967  C 16.2842177808408 8.58534684333601  16.2881461061337 8.60872954014023  16.2881461061337 8.63990646921271  L 16.2881461061337 14.2517537022602  C 16.2881461061337 14.4544037412315  16.2135079255686 14.6297739672643  16.0642315644383 14.7778643803584  C 15.9149552033081 14.9259547934529  15.7381805651275 15  15.5339076498966 15  L 11.0084769124742 15  L 11.0084769124742 10.510522213562  L 7.99152308752584 10.510522213562  L 7.99152308752584 15  L 3.46609235010338 15  C 3.26181943487248 15  3.08504479669194 14.9259547934529  2.93576843556165 14.7778643803584  C 2.7864920744314 14.6297739672643  2.71185389386632 14.4544037412315  2.71185389386632 14.2517537022602  L 2.71185389386632 8.63990646921271  C 2.71185389386632 8.63211223694464  2.71381805651276 8.62042088854253  2.71774638180567 8.60483242400619  C 2.72167470709852 8.58924395947004  2.72363886974497 8.57755261106774  2.72363886974497 8.56975837879967  L 9.5 3.02805923616518  L 16.276361130255 8.56975837879967  Z M 18.9986905582357 7.55845674201093  C 19.0065472088215 7.66367887763048  18.9790489317712 7.7552611067811  18.9161957270848 7.83320342946221  L 18.1855272226051 8.69836321122364  C 18.1226740179187 8.76851130163686  18.0401791867678 8.81137957911145  17.9380427291523 8.82696804364779  L 17.9026878015162 8.82696804364779  C 17.8005513439008 8.82696804364779  17.7180565127498 8.79968823070935  17.6552033080634 8.74512860483245  L 9.5 1.99922057677327  L 1.34479669193658 8.74512860483245  C 1.25051688490692 8.80748246297742  1.15623707787732 8.83476227591586  1.06195727084767 8.82696804364779  C 0.959820813232229 8.81137957911145  0.877325982081301 8.76851130163686  0.814472777394887 8.69836321122364  L 0.0838042729152346 7.83320342946221  C 0.0209510682287964 7.7552611067811  -0.00654720882149657 7.66367887763048  0.00130944176430668 7.55845674201093  C 0.0091660923500731 7.45323460639137  0.0523776705720216 7.36944660950902  0.130944176430042 7.30709275136405  L 8.60434183321849 0.303975058456748  C 8.85575465196418 0.101325019485709  9.15430737422466 0  9.5 0  C 9.84569262577534 0  10.1442453480358 0.101325019485709  10.3956581667815 0.303975058456748  L 13.2711922811854 2.68901013250191  L 13.2711922811854 0.409197194076304  C 13.2711922811854 0.300077942322711  13.3065472088215 0.210444271239301  13.3772570640937 0.140296180826075  C 13.447966919366 0.0701480904130373  13.5383184011027 0.0350740452065187  13.648311509304 0.0350740452065187  L 15.9110268780152 0.0350740452065187  C 16.0210199862164 0.0350740452065187  16.1113714679532 0.0701480904130373  16.1820813232254 0.140296180826075  C 16.2527911784976 0.210444271239301  16.2881461061337 0.300077942322711  16.2881461061337 0.409197194076304  L 16.2881461061337 5.17926734216682  L 18.86905582357 7.30709275136405  C 18.947622329428 7.36944660950902  18.9908339076499 7.45323460639137  18.9986905582357 7.55845674201093  Z " fill-rule="nonzero" fill="#ffffff" stroke="none" transform="matrix(1 0 0 1 334 132 )" />
  </g>
</svg>