<?xml version="1.0" encoding="utf-8"?>
<svg version="1.1" xmlns:xlink="http://www.w3.org/1999/xlink" width="11px" height="20px" xmlns="http://www.w3.org/2000/svg">
  <g transform="matrix(1 0 0 1 -355 -351 )">
    <path d="M 10.8109965635739 9.53907815631262  C 10.9369988545246 9.67267869071479  11 9.82631930527718  11 10  C 11 10.1736806947228  10.9369988545246 10.3273213092852  10.8109965635739 10.4609218436874  L 2.00343642611685 19.7995991983968  C 1.87743413516609 19.9331997327989  1.73253150057275 20  1.56872852233678 20  C 1.40492554410078 20  1.26002290950744 19.9331997327989  1.13402061855668 19.7995991983968  L 0.189003436426113 18.7975951903808  C 0.0630011454753751 18.6639946559786  0 18.5103540414161  0 18.3366733466934  C 0 18.1629926519706  0.0630011454753751 18.0093520374082  0.189003436426113 17.875751503006  L 7.6168384879725 10  L 0.189003436426113 2.12424849699398  C 0.0630011454753751 1.99064796259181  0 1.83700734802942  0 1.6633266533066  C 0 1.48964595858388  0.0630011454753751 1.33600534402138  0.189003436426113 1.20240480961921  L 1.13402061855668 0.200400801603151  C 1.26002290950744 0.0668002672010847  1.40492554410078 0  1.56872852233678 0  C 1.73253150057275 0  1.87743413516609 0.0668002672010847  2.00343642611685 0.200400801603151  L 10.8109965635739 9.53907815631262  Z " fill-rule="nonzero" fill="#333333" stroke="none" transform="matrix(1 0 0 1 355 351 )" />
  </g>
</svg>