<?xml version="1.0" encoding="utf-8"?>
<svg version="1.1" xmlns:xlink="http://www.w3.org/1999/xlink" width="8px" height="5px" xmlns="http://www.w3.org/2000/svg">
  <g transform="matrix(1 0 0 1 -240 -1139 )">
    <path d="M 7.91983967935872 0.515463917525773  C 7.97327989311957 0.572737686139747  8 0.638602520045818  8 0.713058419243986  C 8 0.787514318442153  7.97327989311957 0.853379152348224  7.91983967935872 0.910652920962199  L 4.18436873747495 4.91408934707904  C 4.1309285237141 4.97136311569301  4.06947227788911 5  4 5  C 3.93052772211089 5  3.86907147628591 4.97136311569301  3.81563126252505 4.91408934707904  L 0.0801603206412826 0.910652920962199  C 0.0267201068804276 0.853379152348224  0 0.787514318442153  0 0.713058419243986  C 0 0.638602520045818  0.0267201068804276 0.572737686139747  0.0801603206412826 0.515463917525773  L 0.480961923847695 0.0859106529209624  C 0.534402137608551 0.0286368843069867  0.595858383433534 0  0.665330661322645 0  C 0.734802939211757 0  0.79625918503674 0.0286368843069867  0.849699398797595 0.0859106529209624  L 4 3.46219931271478  L 7.1503006012024 0.0859106529209624  C 7.20374081496326 0.0286368843069867  7.26519706078824 0  7.33466933867735 0  C 7.40414161656647 0  7.46559786239145 0.0286368843069867  7.51903807615231 0.0859106529209624  L 7.91983967935872 0.515463917525773  Z " fill-rule="nonzero" fill="#81d3f8" stroke="none" transform="matrix(1 0 0 1 240 1139 )" />
  </g>
</svg>