<?xml version="1.0" encoding="utf-8"?>
<svg version="1.1" xmlns:xlink="http://www.w3.org/1999/xlink" width="140px" height="140px" xmlns="http://www.w3.org/2000/svg">
  <g transform="matrix(1 0 0 1 -1059 -435 )">
    <path d="M 1059 435  L 1199 435  L 1199 575  L 1059 575  L 1059 435  " fill-rule="nonzero" fill="#cccccc" stroke="none" />
    <path d="M 1069 445  L 1189 445  L 1189 565  L 1069 565  L 1069 445  " fill-rule="nonzero" fill="#ffffff" stroke="none" />
    <path d="M 1142.3 477  C 1136.42 477  1131.8 472.38  1131.8 466.5  C 1131.8 460.62  1136.42 456  1142.3 456  C 1148.18 456  1152.8 460.62  1152.8 466.5  C 1152.8 472.38  1148.18 477  1142.3 477  " fill-rule="nonzero" fill="#cccccc" stroke="none" />
    <path d="M 1073 562  L 1073 499.85  L 1101.25 471.6  L 1140.8 494.2  L 1163.4 488.55  L 1186 494.2  L 1186 562  L 1073 562  " fill-rule="nonzero" fill="#169bd5" stroke="none" />
  </g>
</svg>