<?xml version="1.0" encoding="utf-8"?>
<svg version="1.1" xmlns:xlink="http://www.w3.org/1999/xlink" width="7px" height="11px" xmlns="http://www.w3.org/2000/svg">
  <g transform="matrix(1 0 0 1 -377 -219 )">
    <path d="M 6.87972508591066 0.661322645290568  C 6.95990836197022 0.734802939211761  7 0.819305277221133  7 0.914829659318627  C 7 1.01035404141618  6.95990836197022 1.09485637942549  6.87972508591066 1.16833667334669  L 2.15292096219932 5.5  L 6.87972508591066 9.83166332665331  C 6.95990836197022 9.90514362057451  7 9.98964595858382  7 10.0851703406814  C 7 10.1806947227789  6.95990836197022 10.2651970607882  6.87972508591066 10.3386773547094  L 6.27835051546393 10.8897795591183  C 6.19816723940433 10.9632598530394  6.10595647193585 11  6.00171821305843 11  C 5.89747995418097 11  5.80526918671249 10.9632598530394  5.72508591065291 10.8897795591183  L 0.120274914089345 5.75350701402806  C 0.0400916380297841 5.68002672010687  0 5.59552438209755  0 5.5  C 0 5.40447561790245  0.0400916380297841 5.31997327989313  0.120274914089345 5.24649298597194  L 5.72508591065291 0.110220440881733  C 5.80526918671249 0.0367401469605966  5.89747995418097 0  6.00171821305843 0  C 6.10595647193585 0  6.19816723940433 0.0367401469605966  6.27835051546393 0.110220440881733  L 6.87972508591066 0.661322645290568  Z " fill-rule="nonzero" fill="#aaaaaa" stroke="none" transform="matrix(1 0 0 1 377 219 )" />
  </g>
</svg>