<?xml version="1.0" encoding="utf-8"?>
<svg version="1.1" xmlns:xlink="http://www.w3.org/1999/xlink" width="5px" height="9px" xmlns="http://www.w3.org/2000/svg">
  <g transform="matrix(1 0 0 1 -268 -409 )">
    <path d="M 4.83506944444444 0.1669921875  C 4.94502314814815 0.278320312499999  5 0.410156249999999  5 0.5625  L 5 8.4375  C 5 8.58984375  4.94502314814815 8.7216796875  4.83506944444444 8.8330078125  C 4.72511574074074 8.9443359375  4.59490740740741 9  4.44444444444444 9  C 4.29398148148148 9  4.16377314814815 8.9443359375  4.05381944444444 8.8330078125  L 0.164930555555556 4.8955078125  C 0.0549768518518519 4.7841796875  0 4.65234375  0 4.5  C 0 4.34765625  0.0549768518518519 4.2158203125  0.164930555555556 4.1044921875  L 4.05381944444444 0.1669921875  C 4.16377314814815 0.0556640624999993  4.29398148148148 0  4.44444444444444 0  C 4.59490740740741 0  4.72511574074074 0.0556640624999993  4.83506944444444 0.1669921875  Z " fill-rule="nonzero" fill="#000000" stroke="none" transform="matrix(1 0 0 1 268 409 )" />
  </g>
</svg>