<?xml version="1.0" encoding="utf-8"?>
<svg version="1.1" xmlns:xlink="http://www.w3.org/1999/xlink" width="200px" height="129px" xmlns="http://www.w3.org/2000/svg">
  <defs>
    <mask fill="white" id="clip65">
      <path d="M 200 100  C 200 110.121736582005  198.562570069145 119.851446819231  195.876661884207 129  L 4.12328335288424 128.999992751093  C 1.43741042946488 119.851314817287  0 110.121667921752  0 100  C 0 44  44 0  100 0  C 156 0  200 44  200 100  Z " fill-rule="evenodd" />
    </mask>
  </defs>
  <g transform="matrix(1 0 0 1 -110 -114 )">
    <path d="M 200 100  C 200 110.121736582005  198.562570069145 119.851446819231  195.876661884207 129  L 4.12328335288424 128.999992751093  C 1.43741042946488 119.851314817287  0 110.121667921752  0 100  C 0 44  44 0  100 0  C 156 0  200 44  200 100  Z " fill-rule="nonzero" fill="#ffffff" stroke="none" transform="matrix(1 0 0 1 110 114 )" />
    <path d="M 200 100  C 200 110.121736582005  198.562570069145 119.851446819231  195.876661884207 129  L 4.12328335288424 128.999992751093  C 1.43741042946488 119.851314817287  0 110.121667921752  0 100  C 0 44  44 0  100 0  C 156 0  200 44  200 100  Z " stroke-width="2" stroke="#797979" fill="none" transform="matrix(1 0 0 1 110 114 )" mask="url(#clip65)" />
  </g>
</svg>