<?xml version="1.0" encoding="utf-8"?>
<svg version="1.1" xmlns:xlink="http://www.w3.org/1999/xlink" width="66px" height="57px" xmlns="http://www.w3.org/2000/svg">
  <g transform="matrix(1 0 0 1 -642 -313 )">
    <path d="M 22.1902901785715 20.3916015625001  C 23.111049107143 21.3193359375  23.5714285714285 22.438802083333  23.5714285714285 23.7499999999999  C 23.5714285714285 25.0611979166667  23.111049107143 26.1806640625001  22.1902901785715 27.1083984375  C 21.26953125 28.0361328124999  20.1584821428573 28.5  18.857142857143 28.5  C 17.5558035714286 28.5  16.4447544642855 28.0361328124999  15.5239955357145 27.1083984375  C 14.603236607143 26.1806640625001  14.142857142857 25.0611979166667  14.142857142857 23.7499999999999  C 14.142857142857 22.438802083333  14.603236607143 21.3193359375  15.5239955357145 20.3916015625001  C 16.4447544642855 19.4638671874999  17.5558035714286 19.0000000000001  18.857142857143 19.0000000000001  C 20.1584821428573 19.0000000000001  21.26953125 19.4638671874999  22.1902901785715 20.3916015625001  Z M 36.3331473214285 20.3916015625001  C 37.25390625 21.3193359375  37.7142857142855 22.438802083333  37.7142857142855 23.7499999999999  C 37.7142857142855 25.0611979166667  37.25390625 26.1806640625001  36.3331473214285 27.1083984375  C 35.412388392857 28.0361328124999  34.3013392857144 28.5  33 28.5  C 31.6986607142856 28.5  30.587611607143 28.0361328124999  29.6668526785715 27.1083984375  C 28.74609375 26.1806640625001  28.2857142857145 25.0611979166667  28.2857142857145 23.7499999999999  C 28.2857142857145 22.438802083333  28.74609375 21.3193359375  29.6668526785715 20.3916015625001  C 30.587611607143 19.4638671874999  31.6986607142856 19.0000000000001  33 19.0000000000001  C 34.3013392857144 19.0000000000001  35.412388392857 19.4638671874999  36.3331473214285 20.3916015625001  Z M 50.4760044642855 20.3916015625001  C 51.396763392857 21.3193359375  51.857142857143 22.438802083333  51.857142857143 23.7499999999999  C 51.857142857143 25.0611979166667  51.396763392857 26.1806640625001  50.4760044642855 27.1083984375  C 49.5552455357145 28.0361328124999  48.4441964285714 28.5  47.142857142857 28.5  C 45.8415178571427 28.5  44.73046875 28.0361328124999  43.8097098214285 27.1083984375  C 42.888950892857 26.1806640625001  42.4285714285715 25.0611979166667  42.4285714285715 23.7499999999999  C 42.4285714285715 22.438802083333  42.888950892857 21.3193359375  43.8097098214285 20.3916015625001  C 44.73046875 19.4638671874999  45.8415178571427 19.0000000000001  47.142857142857 19.0000000000001  C 48.4441964285714 19.0000000000001  49.5552455357145 19.4638671874999  50.4760044642855 20.3916015625001  Z M 47.05078125 7.32910156249989  C 42.6925223214286 5.60970052083326  38.0089285714285 4.75000000000011  33 4.75000000000011  C 27.9910714285715 4.75000000000011  23.3074776785714 5.60970052083326  18.94921875 7.32910156249989  C 14.5909598214286 9.04850260416686  11.1289062500001 11.3678385416667  8.5630580357145 14.2871093749999  C 5.99720982142861 17.206380208333  4.7142857142855 20.3606770833333  4.7142857142855 23.7499999999999  C 4.7142857142855 26.5208333333331  5.59207589285728 29.161783854167  7.34765625 31.6728515625  C 9.10323660714272 34.183919270833  11.5770089285714 36.354817708333  14.7689732142855 38.185546875  L 17.9732142857145 40.0410156250001  L 16.978794642857 43.6035156250001  C 16.3895089285715 45.8548177083333  15.5301339285714 47.982421875  14.400669642857 49.986328125  C 18.1328124999999 48.427734375  21.5089285714285 46.3125  24.529017857143 43.640625  L 26.1127232142855 42.2304687499999  L 28.2120535714285 42.4531249999999  C 29.90625 42.6510416666667  31.5022321428573 42.75  33 42.75  C 38.0089285714285 42.75  42.6925223214286 41.8902994791669  47.05078125 40.1708984374999  C 51.4090401785714 38.4514973958333  54.8710937499999 36.132161458333  57.4369419642855 33.2128906249999  C 60.0027901785714 30.2936197916667  61.2857142857145 27.1393229166669  61.2857142857145 23.7499999999999  C 61.2857142857145 20.3606770833333  60.0027901785714 17.206380208333  57.4369419642855 14.2871093749999  C 54.8710937499999 11.3678385416667  51.4090401785714 9.04850260416686  47.05078125 7.32910156249989  Z M 63.385044642857 14.5283203125  C 65.1283482142858 17.4599609374999  66 20.533854166667  66 23.7499999999999  C 66 28.0546875  64.5267857142855 32.0315755208331  61.580357142857 35.6806640625  C 58.6339285714285 39.3297526041669  54.6316964285714 42.2119140625001  49.5736607142855 44.3271484375001  C 44.5156250000001 46.4423828125001  38.9910714285714 47.5000000000001  33 47.5000000000001  C 31.2812499999999 47.5000000000001  29.5011160714285 47.4010416666669  27.6595982142855 47.203125  C 22.7979910714285 51.5325520833333  17.1506696428571 54.5260416666669  10.7176339285715 56.1835937500001  C 9.51450892857136 56.5299479166669  8.11495535714286 56.8020833333331  6.5189732142855 57  L 6.3348214285715 57  C 5.966517857143 57  5.635044642857 56.8701171874999  5.3404017857145 56.6103515625  C 5.0457589285715 56.3505859375001  4.84933035714272 56.0104166666667  4.7511160714285 55.5898437499999  L 4.7511160714285 55.552734375  C 4.677455357143 55.4537760416667  4.67131696428578 55.3053385416669  4.732700892857 55.107421875  C 4.79408482142864 54.9095052083331  4.81863839285728 54.7858072916667  4.806361607143 54.7363281250001  C 4.79408482142864 54.6868489583331  4.84933035714272 54.5693359375001  4.9720982142855 54.3837890625  L 5.193080357143 54.0498046875  C 5.193080357143 54.0498046875  5.27901785714286 53.944661458333  5.450892857143 53.7343750000001  C 5.62276785714272 53.5240885416669  5.72098214285728 53.4127604166669  5.7455357142855 53.4003906250001  C 5.91741071428564 53.2024739583333  6.2979910714285 52.775716145833  6.8872767857145 52.1201171875001  C 7.4765625 51.4645182291669  7.900111607143 50.994466145833  8.157924107143 50.7099609375  C 8.415736607143 50.425455729167  8.79631696428578 49.936848958333  9.2996651785715 49.2441406249999  C 9.80301339285714 48.5514322916667  10.2020089285715 47.920572916667  10.4966517857145 47.3515624999999  C 10.791294642857 46.7825520833331  11.122767857143 46.0527343750001  11.4910714285715 45.1621093750001  C 11.859375 44.2714843750001  12.1785714285714 43.3313802083331  12.4486607142855 42.3417968749999  C 8.59374999999986 40.139973958333  5.55524553571436 37.4186197916667  3.3331473214285 34.177734375  C 1.11104910714272 30.9368489583333  0 27.4609375000001  0 23.7499999999999  C 0 20.533854166667  0.871651785714221 17.4599609374999  2.614955357143 14.5283203125  C 4.35825892857136 11.5966796875001  6.703125 9.06705729166697  9.6495535714285 6.93945312499989  C 12.595982142857 4.81184895833314  16.1071428571429 3.12337239583303  20.1830357142855 1.87402343749989  C 24.2589285714286 0.624674479166742  28.5312500000001 0  33 0  C 37.4687499999999 0  41.7410714285714 0.624674479166742  45.8169642857145 1.87402343749989  C 49.8928571428571 3.12337239583303  53.404017857143 4.81184895833314  56.3504464285715 6.93945312499989  C 59.296875 9.06705729166697  61.6417410714286 11.5966796875001  63.385044642857 14.5283203125  Z " fill-rule="nonzero" fill="#d7d7d7" stroke="none" transform="matrix(1 0 0 1 642 313 )" />
  </g>
</svg>