<?xml version="1.0" encoding="utf-8"?>
<svg version="1.1" xmlns:xlink="http://www.w3.org/1999/xlink" width="9px" height="16px" xmlns="http://www.w3.org/2000/svg">
  <g transform="matrix(1 0 0 1 -355 -133 )">
    <path d="M 8.84536082474227 7.6312625250501  C 8.94845360824742 7.73814295257183  9 7.86105544422174  9 8  C 9 8.13894455577826  8.94845360824742 8.26185704742817  8.84536082474227 8.3687374749499  L 1.63917525773197 15.8396793587175  C 1.5360824742268 15.9465597862391  1.41752577319589 16  1.28350515463919 16  C 1.14948453608245 16  1.03092783505154 15.9465597862391  0.927835051546374 15.8396793587175  L 0.154639175257729 15.0380761523046  C 0.0515463917525796 14.9311957247829  0 14.8082832331329  0 14.6693386773547  C 0 14.5303941215765  0.0515463917525796 14.4074816299266  0.154639175257729 14.3006012024048  L 6.23195876288659 8  L 0.154639175257729 1.69939879759518  C 0.0515463917525796 1.59251837007345  0 1.46960587842353  0 1.33066132264528  C 0 1.1917167668671  0.0515463917525796 1.06880427521711  0.154639175257729 0.961923847695371  L 0.927835051546374 0.160320641282521  C 1.03092783505154 0.0534402137608677  1.14948453608245 0  1.28350515463919 0  C 1.41752577319589 0  1.5360824742268 0.0534402137608677  1.63917525773197 0.160320641282521  L 8.84536082474227 7.6312625250501  Z " fill-rule="nonzero" fill="#7f7f7f" stroke="none" transform="matrix(1 0 0 1 355 133 )" />
  </g>
</svg>