<?xml version="1.0" encoding="utf-8"?>
<svg version="1.1" xmlns:xlink="http://www.w3.org/1999/xlink" width="21px" height="20px" xmlns="http://www.w3.org/2000/svg">
  <g transform="matrix(1 0 0 1 -363 -70 )">
    <path d="M 17.5042067307693 12.5  C 17.6808894230769 12.578125  17.7692307692307 12.7039930555555  17.7692307692307 12.8776041666667  L 17.7692307692307 16.25  C 17.7692307692307 17.2829861111112  17.4137620192308 18.1662326388888  16.7028245192307 18.8997395833333  C 15.9918870192307 19.6332465277778  15.1358173076923 20  14.1346153846154 20  L 3.6346153846154 20  C 2.63341346153847 20  1.77734374999996 19.6332465277778  1.06640625 18.8997395833333  C 0.355468750000036 18.1662326388888  0 17.2829861111112  0 16.25  L 0 5.41666666666667  C 0 4.38368055555548  0.355468750000036 3.50043402777785  1.06640625 2.76692708333333  C 1.77734374999996 2.03342013888882  2.63341346153847 1.66666666666667  3.6346153846154 1.66666666666667  L 6.8527644230769 1.66666666666667  C 6.96213942307694 1.66666666666667  7.05679086538461 1.70789930555548  7.13671875 1.79036458333333  C 7.21664663461539 1.87282986111118  7.2566105769231 1.97048611111118  7.2566105769231 2.08333333333333  C 7.2566105769231 2.31770833333333  7.14723557692306 2.45659722222215  6.9284855769231 2.5  C 6.28064903846154 2.72569444444452  5.72115384615383 2.98611111111118  5.25 3.28125  C 5.16586538461539 3.31597222222215  5.09855769230767 3.33333333333333  5.0480769230769 3.33333333333333  L 3.6346153846154 3.33333333333333  C 3.0793269230769 3.33333333333333  2.60396634615383 3.53732638888882  2.20853365384614 3.9453125  C 1.81310096153847 4.35329861111118  1.6153846153846 4.84375  2 5.41666666666667  L 2 16.25  C 1.6153846153846 16.8229166666667  1.81310096153847 17.3133680555555  2.20853365384614 17.7213541666667  C 2.60396634615383 18.1293402777778  3.0793269230769 18.3333333333333  3.6346153846154 18  L 14.1346153846154 18  C 14.6899038461538 18.3333333333333  15.1652644230769 18.1293402777778  15.5606971153846 17.7213541666667  C 15.9561298076923 17.3133680555555  16.1538461538462 16.8229166666667  16.1538461538462 16.25  L 16.1538461538462 13.4635416666667  C 16.1538461538462 13.2986111111112  16.2295673076923 13.1727430555555  16.3810096153846 13.0859375  C 16.6165865384615 12.9730902777778  16.84375 12.8125  17.0625 12.6041666666667  C 17.1971153846154 12.4652777777778  17.3443509615385 12.4305555555555  17.5042067307693 12.5  Z M 21 5.83333333333333  C 21 6.05902777777785  20.9200721153846 6.25434027777785  20.7602163461538 6.41927083333333  L 15.9140625 11.4192708333333  C 15.7626201923077 11.5842013888888  15.5733173076923 11.6666666666667  15.3461538461538 11.6666666666667  C 15.2451923076923 11.6666666666667  15.1400240384615 11.6449652777778  15.0306490384615 11.6015625  C 14.7025240384615 11.4539930555555  14.5384615384615 11.1979166666667  14.5384615384615 10.8333333333333  L 14.5384615384615 8.33333333333333  L 12.5192307692308 8.33333333333333  C 9.80168269230771 8.33333333333333  7.95913461538461 8.90190972222215  6.99158653846153 10.0390625  C 5.99038461538461 11.2282986111112  5.67908653846153 13.28125  6.05769230769233 16.1979166666667  C 6.08293269230767 16.3975694444445  5.99879807692306 16.5451388888888  5.80528846153847 16.640625  C 5.73798076923075 16.6579861111112  5.68750000000004 16.6666666666667  5.65384615384614 16.6666666666667  C 5.51923076923079 16.6666666666667  5.40985576923075 16.6102430555555  5.32572115384614 16.4973958333333  C 5.24158653846153 16.3758680555555  5.15324519230769 16.2413194444445  5.0606971153846 16.09375  C 4.96814903846154 15.9461805555555  4.8019831730769 15.6488715277778  4.56219951923077 15.2018229166667  C 4.3224158653846 14.7547743055555  4.11418269230767 14.3229166666667  3.9375 13.90625  C 3.76081730769233 13.4895833333333  3.59885817307694 12.9947916666667  3.45162259615386 12.421875  C 3.30438701923079 11.8489583333333  3.23076923076923 11.3194444444445  3.23076923076923 10.8333333333333  C 3.23076923076923 10.4079861111112  3.24549278846154 10.0130208333333  3.27493990384614 9.6484375  C 3.30438701923079 9.28385416666667  3.36328125 8.89322916666667  3.45162259615386 8.4765625  C 3.53996394230767 8.05989583333333  3.65775240384616 7.67795138888882  3.80498798076923 7.33072916666667  C 3.95222355769231 6.98350694444452  4.14993990384616 6.62977430555548  4.39813701923077 6.26953125  C 4.64633413461535 5.90928819444452  4.93449519230767 5.58810763888882  5.26262019230767 5.30598958333333  C 5.59074519230767 5.02387152777785  5.98828125 4.75694444444452  6.4552283653846 4.50520833333333  C 6.92217548076923 4.25347222222215  7.44591346153847 4.04296875  8.02644230769233 3.87369791666667  C 8.60697115384614 3.70442708333333  9.27794471153847 3.57204861111118  10.0393629807692 3.4765625  C 10.80078125 3.38107638888882  11.6274038461538 3.33333333333333  12.5192307692308 3.33333333333333  L 14.5384615384615 3.33333333333333  L 14.5384615384615 0.833333333333333  C 14.5384615384615 0.46875  14.7025240384615 0.212673611111183  15.0306490384615 0.0651041666666667  C 15.1400240384615 0.0217013888888167  15.2451923076923 0  15.3461538461538 0  C 15.5649038461539 0  15.7542067307693 0.08246527777785  15.9140625 0.247395833333333  L 20.7602163461538 5.24739583333333  C 20.9200721153846 5.41232638888882  21 5.60763888888882  21 5.83333333333333  Z " fill-rule="nonzero" fill="#333333" stroke="none" transform="matrix(1 0 0 1 363 70 )" />
  </g>
</svg>