<?xml version="1.0" encoding="utf-8"?>
<svg version="1.1" xmlns:xlink="http://www.w3.org/1999/xlink" width="18px" height="18px" xmlns="http://www.w3.org/2000/svg">
  <g transform="matrix(1 0 0 1 -102 -81 )">
    <path d="M 11.0390625 11.0390625  C 11.0819930102472 10.9961319897528  11.1239517841909 10.9528061343176  11.1649388218313 10.9090849336942  C 12.0293385816361 9.98702280154375  12.4615384615384 8.8891226954405  12.4615384615384 7.61538461538467  C 12.4615384615384 6.28125000000002  11.9873798076923 5.14002403846152  11.0390625 4.19170673076926  C 10.0907451923077 3.24338942307688  8.94951923076924 2.76923076923074  7.61538461538459 2.76923076923074  C 6.28124999999999 2.76923076923074  5.14002403846154 3.24338942307688  4.19170673076922 4.19170673076926  C 3.2433894230769 5.14002403846152  2.76923076923078 6.28125000000002  2.76923076923078 7.61538461538467  C 2.76923076923078 8.94951923076922  3.2433894230769 10.0907451923077  4.19170673076922 11.0390625  C 5.14002403846154 11.9873798076923  6.28124999999999 12.4615384615385  7.61538461538459 12.4615384615385  C 8.34996650910728 12.4615384615385  9.02606497165456 12.317789467154  9.64368000302643 12.0302914783851  C 10.1477664448005 11.79564071567  10.6128939437917 11.4652310562083  11.0390625 11.0390625  Z M 17.5997596153846 15.6418269230769  C 17.8665865384615 15.9086538461539  18 16.2331730769231  18 16.6153846153846  C 18 16.9903846153846  17.8629807692308 17.3149038461539  17.5889423076923 17.5889423076923  C 17.3149038461539 17.8629807692308  16.9903846153846 18  16.6153846153846 18  C 16.2259615384616 18  15.9014423076923 17.8629807692308  15.6418269230769 17.5889423076923  L 11.9314903846154 13.8894230769231  C 10.640625 14.7836538461539  9.2019230769231 15.2307692307691  7.61538461538459 15.2307692307691  C 6.58413461538462 15.2307692307691  5.59795673076922 15.0306490384615  4.65685096153848 14.6304086538462  C 3.7157451923077 14.2301682692309  2.90444711538459 13.6893028846154  2.22295673076924 13.0078125  C 1.54146634615383 12.3263221153846  1.00060096153846 11.5150240384615  0.600360576923074 10.5739182692307  C 0.200120192307704 9.6328125  0 8.64663461538464  0 7.61538461538467  C 0 6.58413461538462  0.200120192307704 5.59795673076926  0.600360576923074 4.6568509615385  C 1.00060096153846 3.71574519230767  1.54146634615383 2.90444711538467  2.22295673076924 2.22295673076926  C 2.90444711538459 1.54146634615383  3.7157451923077 1.0006009615385  4.65685096153848 0.600360576923092  C 5.59795673076922 0.200120192307667  6.58413461538462 0  7.61538461538459 0  C 8.6466346153846 0  9.6328125 0.200120192307667  10.5739182692308 0.600360576923092  C 11.5150240384616 1.0006009615385  12.3263221153846 1.54146634615383  13.0078125 2.22295673076926  C 13.6893028846154 2.90444711538467  14.2301682692308 3.71574519230767  14.6304086538462 4.6568509615385  C 15.0306490384616 5.59795673076926  15.2307692307692 6.58413461538462  15.2307692307692 7.61538461538467  C 15.2307692307692 9.20192307692312  14.7836538461539 10.640625  13.8894230769231 11.9314903846153  L 17.5997596153846 15.6418269230769  Z " fill-rule="nonzero" fill="#ffffff" stroke="none" transform="matrix(1 0 0 1 102 81 )" />
  </g>
</svg>