<?xml version="1.0" encoding="utf-8"?>
<svg version="1.1" xmlns:xlink="http://www.w3.org/1999/xlink" width="374px" height="244px" xmlns="http://www.w3.org/2000/svg">
  <g transform="matrix(1 0 0 1 -30 -111 )">
    <path d="M 30 111  L 404 111  L 404 355  L 30 355  L 30 111  " fill-rule="nonzero" fill="#cccccc" stroke="none" />
    <path d="M 47 128  L 387 128  L 387 338  L 47 338  L 47 128  " fill-rule="nonzero" fill="#ffffff" stroke="none" />
    <path d="M 242.78 184.2  C 232.532 184.2  224.48 176.148  224.48 165.9  C 224.48 155.652  232.532 147.6  242.78 147.6  C 253.028 147.6  261.08 155.652  261.08 165.9  C 261.08 176.148  253.028 184.2  242.78 184.2  " fill-rule="nonzero" fill="#cccccc" stroke="none" />
    <path d="M 53 332  L 53 223.1  L 135 173.6  L 249.8 254.494117647059  L 315.4 203.3  L 381 254.494117647059  L 381 332  L 53 332  " fill-rule="nonzero" fill="#169bd5" stroke="none" />
  </g>
</svg>