<?xml version="1.0" encoding="utf-8"?>
<svg version="1.1" xmlns:xlink="http://www.w3.org/1999/xlink" width="16px" height="16px" viewBox="606 1458  16 16" xmlns="http://www.w3.org/2000/svg">
  <path d="M 614 1458  C 618.48 1458  622 1461.52  622 1466  C 622 1470.48  618.48 1474  614 1474  C 609.52 1474  606 1470.48  606 1466  C 606 1461.52  609.52 1458  614 1458  Z " fill-rule="nonzero" fill="#ffffff" stroke="none" />
  <path d="M 614 1458.5  C 618.2 1458.5  621.5 1461.8  621.5 1466  C 621.5 1470.2  618.2 1473.5  614 1473.5  C 609.8 1473.5  606.5 1470.2  606.5 1466  C 606.5 1461.8  609.8 1458.5  614 1458.5  Z " stroke-width="1" stroke="#797979" fill="none" />
  <path d="M 614 1470  C 611.76 1470  610 1468.24  610 1466  C 610 1463.76  611.76 1462  614 1462  C 616.24 1462  618 1463.76  618 1466  C 618 1468.24  616.24 1470  614 1470  " fill-rule="nonzero" fill="#797979" stroke="none" />
</svg>