<?xml version="1.0" encoding="utf-8"?>
<svg version="1.1" xmlns:xlink="http://www.w3.org/1999/xlink" width="16px" height="16px" viewBox="540 1273  16 16" xmlns="http://www.w3.org/2000/svg">
  <path d="M 548 1273  C 552.48 1273  556 1276.52  556 1281  C 556 1285.48  552.48 1289  548 1289  C 543.52 1289  540 1285.48  540 1281  C 540 1276.52  543.52 1273  548 1273  Z " fill-rule="nonzero" fill="#ffffff" stroke="none" />
  <path d="M 548 1273.5  C 552.2 1273.5  555.5 1276.8  555.5 1281  C 555.5 1285.2  552.2 1288.5  548 1288.5  C 543.8 1288.5  540.5 1285.2  540.5 1281  C 540.5 1276.8  543.8 1273.5  548 1273.5  Z " stroke-width="1" stroke="#797979" fill="none" />
  <path d="M 548 1285  C 545.76 1285  544 1283.24  544 1281  C 544 1278.76  545.76 1277  548 1277  C 550.24 1277  552 1278.76  552 1281  C 552 1283.24  550.24 1285  548 1285  " fill-rule="nonzero" fill="#797979" stroke="none" />
</svg>