<?xml version="1.0" encoding="utf-8"?>
<svg version="1.1" xmlns:xlink="http://www.w3.org/1999/xlink" width="16px" height="16px" viewBox="476 1458  16 16" xmlns="http://www.w3.org/2000/svg">
  <path d="M 484 1458  C 488.48 1458  492 1461.52  492 1466  C 492 1470.48  488.48 1474  484 1474  C 479.52 1474  476 1470.48  476 1466  C 476 1461.52  479.52 1458  484 1458  Z " fill-rule="nonzero" fill="#ffffff" stroke="none" />
  <path d="M 484 1458.5  C 488.2 1458.5  491.5 1461.8  491.5 1466  C 491.5 1470.2  488.2 1473.5  484 1473.5  C 479.8 1473.5  476.5 1470.2  476.5 1466  C 476.5 1461.8  479.8 1458.5  484 1458.5  Z " stroke-width="1" stroke="#797979" fill="none" />
  <path d="M 484 1470  C 481.76 1470  480 1468.24  480 1466  C 480 1463.76  481.76 1462  484 1462  C 486.24 1462  488 1463.76  488 1466  C 488 1468.24  486.24 1470  484 1470  " fill-rule="nonzero" fill="#797979" stroke="none" />
</svg>