<?xml version="1.0" encoding="utf-8"?>
<svg version="1.1" xmlns:xlink="http://www.w3.org/1999/xlink" width="16px" height="16px" viewBox="410 1226  16 16" xmlns="http://www.w3.org/2000/svg">
  <path d="M 418 1226  C 422.48 1226  426 1229.52  426 1234  C 426 1238.48  422.48 1242  418 1242  C 413.52 1242  410 1238.48  410 1234  C 410 1229.52  413.52 1226  418 1226  Z " fill-rule="nonzero" fill="#ffffff" stroke="none" />
  <path d="M 418 1226.5  C 422.2 1226.5  425.5 1229.8  425.5 1234  C 425.5 1238.2  422.2 1241.5  418 1241.5  C 413.8 1241.5  410.5 1238.2  410.5 1234  C 410.5 1229.8  413.8 1226.5  418 1226.5  Z " stroke-width="1" stroke="#797979" fill="none" />
  <path d="M 418 1238  C 415.76 1238  414 1236.24  414 1234  C 414 1231.76  415.76 1230  418 1230  C 420.24 1230  422 1231.76  422 1234  C 422 1236.24  420.24 1238  418 1238  " fill-rule="nonzero" fill="#797979" stroke="none" />
</svg>