<?xml version="1.0" encoding="utf-8"?>
<svg version="1.1" xmlns:xlink="http://www.w3.org/1999/xlink" width="16px" height="16px" viewBox="344 1850  16 16" xmlns="http://www.w3.org/2000/svg">
  <path d="M 352 1850  C 356.48 1850  360 1853.52  360 1858  C 360 1862.48  356.48 1866  352 1866  C 347.52 1866  344 1862.48  344 1858  C 344 1853.52  347.52 1850  352 1850  Z " fill-rule="nonzero" fill="#ffffff" stroke="none" />
  <path d="M 352 1850.5  C 356.2 1850.5  359.5 1853.8  359.5 1858  C 359.5 1862.2  356.2 1865.5  352 1865.5  C 347.8 1865.5  344.5 1862.2  344.5 1858  C 344.5 1853.8  347.8 1850.5  352 1850.5  Z " stroke-width="1" stroke="#797979" fill="none" />
  <path d="M 352 1862  C 349.76 1862  348 1860.24  348 1858  C 348 1855.76  349.76 1854  352 1854  C 354.24 1854  356 1855.76  356 1858  C 356 1860.24  354.24 1862  352 1862  " fill-rule="nonzero" fill="#797979" stroke="none" />
</svg>