<?xml version="1.0" encoding="utf-8"?>
<svg version="1.1" xmlns:xlink="http://www.w3.org/1999/xlink" width="23px" height="23px" xmlns="http://www.w3.org/2000/svg">
  <g transform="matrix(1 0 0 1 -50 -84 )">
    <path d="M 22.4921875 9.21919127086012  C 22.8307291666667 9.58825417201535  23 10.0335900727428  23 10.5551989730424  L 23 12.4448010269576  C 23 12.9664099272572  22.8307291666667 13.4117458279846  22.4921875 13.7808087291399  C 22.1536458333334 14.1498716302952  21.7135416666667 14.3344030808729  21.171875 14  L 10.1718749999999 14  L 14.75 18.6745827984596  C 15.1458333333334 19.0288831835687  15.34375 19.471758664955  15.34375 20.0032092426187  C 15.34375 20.5346598202824  15.1458333333334 20.9775353016688  14.75 21.3318356867779  L 13.578125 22.4537869062901  C 13.1927083333334 22.8179289687634  12.7239583333333 23  12.171875 23  C 11.6302083333334 23  11.15625 22.8179289687634  10.75 22.4537869062901  L 0.57812500000006 12.8286264441591  C 0.192708333333312 12.464484381686  0 12.0216089002996  0 11.5  C 0 10.9882327770647  0.192708333333312 10.5404364569961  0.57812500000006 10.1566110397946  L 10.75 0.560975609756063  C 11.1458333333333 0.186991869918648  11.6197916666667 0  12.171875 0  C 12.7135416666667 0  13.1822916666666 0.186991869918648  13.578125 0.560975609756063  L 14.75 1.65340179717583  C 15.1458333333334 2.02738553701324  15.34375 2.47518185708168  15.34375 2.99679075738126  C 15.34375 3.51839965768084  15.1458333333334 3.96619597774928  14.75 4.34017971758669  L 10.1718749999999 9  L 21.171875 9  C 21.7135416666667 8.66559691912709  22.1536458333334 8.85012836970476  22.4921875 9.21919127086012  Z " fill-rule="nonzero" fill="#333333" stroke="none" transform="matrix(1 0 0 1 50 84 )" />
  </g>
</svg>