<?xml version="1.0" encoding="utf-8"?>
<svg version="1.1" xmlns:xlink="http://www.w3.org/1999/xlink" width="20px" height="20px" xmlns="http://www.w3.org/2000/svg">
  <g transform="matrix(1 0 0 1 -248 -321 )">
    <path d="M 258 321  C 263.6 321  268 325.4  268 331  C 268 336.6  263.6 341  258 341  C 252.4 341  248 336.6  248 331  C 248 325.4  252.4 321  258 321  Z " fill-rule="nonzero" fill="#ffffff" stroke="none" />
    <path d="M 258 321.5  C 263.32 321.5  267.5 325.68  267.5 331  C 267.5 336.32  263.32 340.5  258 340.5  C 252.68 340.5  248.5 336.32  248.5 331  C 248.5 325.68  252.68 321.5  258 321.5  Z " stroke-width="1" stroke="#f2f2f2" fill="none" />
  </g>
</svg>