<?xml version="1.0" encoding="utf-8"?>
<svg version="1.1" xmlns:xlink="http://www.w3.org/1999/xlink" width="3px" height="6px" xmlns="http://www.w3.org/2000/svg">
  <g transform="matrix(1 0 0 1 -380 -313 )">
    <path d="M 2.94845360824742 2.86172344689379  C 2.98281786941581 2.90180360721443  3 2.94789579158317  3 3  C 3 3.05210420841683  2.98281786941581 3.09819639278557  2.94845360824742 3.13827655310621  L 0.54639175257732 5.93987975951904  C 0.512027491408935 5.97995991983968  0.472508591065292 6  0.427835051546392 6  C 0.383161512027491 6  0.343642611683849 5.97995991983968  0.309278350515464 5.93987975951904  L 0.0515463917525773 5.63927855711423  C 0.0171821305841925 5.59919839679359  0 5.55310621242485  0 5.50100200400802  C 0 5.44889779559118  0.0171821305841925 5.40280561122244  0.0515463917525773 5.3627254509018  L 2.07731958762887 3  L 0.0515463917525773 0.637274549098196  C 0.0171821305841925 0.597194388777555  0 0.551102204408817  0 0.498997995991984  C 0 0.44689378757515  0.0171821305841925 0.400801603206412  0.0515463917525773 0.360721442885771  L 0.309278350515464 0.060120240480962  C 0.343642611683849 0.0200400801603204  0.383161512027491 0  0.427835051546392 0  C 0.472508591065292 0  0.512027491408935 0.0200400801603204  0.54639175257732 0.060120240480962  L 2.94845360824742 2.86172344689379  Z " fill-rule="nonzero" fill="#81d3f8" stroke="none" transform="matrix(1 0 0 1 380 313 )" />
  </g>
</svg>