<?xml version="1.0" encoding="utf-8"?>
<svg version="1.1" xmlns:xlink="http://www.w3.org/1999/xlink" width="66px" height="51px" xmlns="http://www.w3.org/2000/svg">
  <g transform="matrix(1 0 0 1 -642 -242 )">
    <path d="M 57.1810344827586 18.835227272727  C 58.5086206896552 17.4829545454552  59.1724137931034 15.840909090909  59.1724137931034 13.9090909090912  C 59.1724137931034 11.9772727272727  58.5086206896552 10.3352272727273  57.1810344827586 8.98295454545473  C 55.8534482758621 7.63068181818153  54.2413793103449 6.95454545454527  52.344827586207 6.95454545454527  L 50 6.95454545454527  L 50 20.8636363636358  L 52.344827586207 20.8636363636358  C 54.2413793103449 20.8636363636358  55.8534482758621 20.1875000000002  57.1810344827586 18.835227272727  Z M 2.66702586206891 48.2833806818182  C 0.889008620689665 46.4723011363642  0 44.2869318181815  0 41  L 63.7241379310344 41  C 63.7241379310344 44.2869318181815  62.8351293103448 46.4723011363642  61.0571120689656 48.2833806818182  C 59.2790948275863 50.094460227273  57.1336206896551 51  54.6206896551724 51  L 9.10344827586205 51  C 6.5905172413793 51  4.44504310344828 50.094460227273  2.66702586206891 48.2833806818182  Z M 61.9994612068966 4.07492897727298  C 64.6664870689656 6.79154829545473  66 10.069602272727  66 13.9090909090912  C 66 17.7485795454547  64.6664870689656 21.026633522727  61.9994612068966 23.7432528409088  C 59.3324353448276 26.4598721590912  56.114224137931 27.8181818181818  52.344827586207 27.8181818181818  L 50.0689655172414 27.8181818181818  L 50.0689655172414 28.977272727273  C 50.0689655172414 31.1988636363637  49.2866379310344 33.1065340909088  47.7219827586206 34.7002840909088  C 46.157327586207 36.2940340909088  44.2844827586207 37.0909090909088  42.103448275862 37  L 17.0689655172414 37  C 14.8879310344827 37.0909090909088  13.0150862068966 36.2940340909088  11.4504310344827 34.7002840909088  C 9.88577586206891 33.1065340909088  9.10344827586205 31.1988636363637  10 28.977272727273  L 10 2.31818181818176  C 9.10344827586205 1.69034090909099  9.32866379310349 1.1470170454545  9.77909482758623 0.688210227272975  C 10.229525862069 0.229403409090764  10.7629310344827 0  11.3793103448276 0  L 52.344827586207 0  C 56.114224137931 0  59.3324353448276 1.35830965909122  61.9994612068966 4.07492897727298  Z " fill-rule="nonzero" fill="#d7d7d7" stroke="none" transform="matrix(1 0 0 1 642 242 )" />
  </g>
</svg>