<?xml version="1.0" encoding="utf-8"?>
<svg version="1.1" xmlns:xlink="http://www.w3.org/1999/xlink" width="74px" height="74px" xmlns="http://www.w3.org/2000/svg">
  <defs>
    <mask fill="white" id="clip50">
      <path d="M 79 198  C 73.45 198  69 193.55  69 188  L 69 134  C 69 128.45  73.45 124  79 124  L 133 124  C 138.55 124  143 128.45  143 134  L 143 188  C 143 193.55  138.55 198  133 198  " fill-rule="evenodd" />
    </mask>
  </defs>
  <g transform="matrix(1 0 0 1 -69 -124 )">
    <path d="M 69 124  L 143 124  L 143 198  L 69 198  L 69 124  " fill-rule="nonzero" fill="#cccccc" stroke="none" mask="url(#clip50)" />
    <path d="M 74 129  L 138 129  L 138 193  L 74 193  L 74 129  " fill-rule="nonzero" fill="#ffffff" stroke="none" mask="url(#clip50)" />
    <path d="M 113.03 146.2  C 109.922 146.2  107.48 143.758  107.48 140.65  C 107.48 137.542  109.922 135.1  113.03 135.1  C 116.138 135.1  118.58 137.542  118.58 140.65  C 118.58 143.758  116.138 146.2  113.03 146.2  " fill-rule="nonzero" fill="#cccccc" stroke="none" mask="url(#clip50)" />
    <path d="M 76 191  L 76 158  L 91 143  L 112 155  L 124 152  L 136 155  L 136 191  L 76 191  " fill-rule="nonzero" fill="#169bd5" stroke="none" mask="url(#clip50)" />
  </g>
</svg>