<?xml version="1.0" encoding="utf-8"?>
<svg version="1.1" xmlns:xlink="http://www.w3.org/1999/xlink" width="335px" height="177px" xmlns="http://www.w3.org/2000/svg">
  <g transform="matrix(1 0 0 1 -49 -366 )">
    <path d="M 49 366  L 384 366  L 384 543  L 49 543  L 49 366  " fill-rule="nonzero" fill="#cccccc" stroke="none" />
    <path d="M 61 378  L 372 378  L 372 531  L 61 531  L 61 378  " fill-rule="nonzero" fill="#ffffff" stroke="none" />
    <path d="M 236.475 419.1  C 229.041 419.1  223.2 413.259  223.2 405.825  C 223.2 398.391  229.041 392.55  236.475 392.55  C 243.909 392.55  249.75 398.391  249.75 405.825  C 249.75 413.259  243.909 419.1  236.475 419.1  " fill-rule="nonzero" fill="#cccccc" stroke="none" />
    <path d="M 66 527  L 66 447.8  L 141.5 411.8  L 247.2 481.349850746269  L 307.6 433.4  L 368 481.349850746269  L 368 527  L 66 527  " fill-rule="nonzero" fill="#169bd5" stroke="none" />
  </g>
</svg>