<?xml version="1.0" encoding="utf-8"?>
<svg version="1.1" xmlns:xlink="http://www.w3.org/1999/xlink" width="335px" height="625px" xmlns="http://www.w3.org/2000/svg">
  <g transform="matrix(1 0 0 1 -49 -111 )">
    <path d="M 49 111  L 384 111  L 384 736  L 49 736  L 49 111  " fill-rule="nonzero" fill="#cccccc" stroke="none" />
    <path d="M 72 134  L 361 134  L 361 713  L 72 713  L 72 134  " fill-rule="nonzero" fill="#ffffff" stroke="none" />
    <path d="M 248.325 255  C 234.255 255  223.2 243.945  223.2 229.875  C 223.2 215.805  234.255 204.75  248.325 204.75  C 262.395 204.75  273.45 215.805  273.45 229.875  C 273.45 243.945  262.395 255  248.325 255  " fill-rule="nonzero" fill="#cccccc" stroke="none" />
    <path d="M 81 705  L 81 395.9  L 149 255.4  L 244.2 367.8  L 298.6 339.7  L 353 367.8  L 353 705  L 81 705  " fill-rule="nonzero" fill="#169bd5" stroke="none" />
  </g>
</svg>