<?xml version="1.0" encoding="utf-8"?>
<svg version="1.1" xmlns:xlink="http://www.w3.org/1999/xlink" width="170px" height="170px" xmlns="http://www.w3.org/2000/svg">
  <g transform="matrix(1 0 0 1 -131 -445 )">
    <path d="M 131 445  L 301 445  L 301 615  L 131 615  L 131 445  " fill-rule="nonzero" fill="#cccccc" stroke="none" />
    <path d="M 143 457  L 289 457  L 289 603  L 143 603  L 143 457  " fill-rule="nonzero" fill="#ffffff" stroke="none" />
    <path d="M 232.15 496  C 225.01 496  219.4 490.39  219.4 483.25  C 219.4 476.11  225.01 470.5  232.15 470.5  C 239.29 470.5  244.9 476.11  244.9 483.25  C 244.9 490.39  239.29 496  232.15 496  " fill-rule="nonzero" fill="#cccccc" stroke="none" />
    <path d="M 148 599  L 148 523.65  L 182.25 489.4  L 230.2 516.8  L 257.6 509.95  L 285 516.8  L 285 599  L 148 599  " fill-rule="nonzero" fill="#169bd5" stroke="none" />
  </g>
</svg>